<svg width="200" height="200" viewBox="0 0 200 200" fill="none" xmlns="http://www.w3.org/2000/svg">
<g clip-path="url(#clip0)">
<path d="M64.8732 167.991C62.7844 176.568 55.7042 176.318 48.2402 173.899C37.6816 170.477 22.1248 151.443 19.7861 141.939C17.6397 133.217 20.0792 125.955 26.8753 124.334" fill="white"/>
<path d="M64.8732 167.991C62.7844 176.568 55.7042 176.318 48.2402 173.899C37.6816 170.477 22.1248 151.443 19.7861 141.939C17.6397 133.217 20.0792 125.955 26.8753 124.334" stroke="black" stroke-width="4.99999" stroke-linecap="round" stroke-linejoin="round"/>
<path d="M18.9316 51.8857C8.428 55.3405 16.1695 71.7396 26.9569 87.4159C31.1456 93.5032 23.9588 120.894 31.8388 137.037C36.965 147.54 54.0192 165.914 64.8532 167.56C83.4035 170.378 98.9478 165.64 113.927 155.544C119.237 151.966 124.533 147.11 128.429 142.709C141.225 128.256 186.42 107.266 188.981 102.844C196.099 90.5577 179.181 85.009 170.602 88.9045C166.446 90.7913 134.332 101.05 138.324 96.9298C148.128 86.8082 161.149 75.8056 174.037 66.1183C193.324 51.6221 165.482 32.2952 147.562 46.054C139.167 52.4994 131.4 56.8942 113.003 71.7178C119.21 60.0338 127.458 42.584 134.797 32.1571C146.897 14.963 117.11 2.73656 102.756 24.07C92.9817 38.5984 78.233 66.7019 56.0742 86.772C54.7107 71.7265 50.6144 41.4632 18.9329 51.8832L18.9316 51.8857Z" fill="white" stroke="black" stroke-width="4.99999" stroke-linecap="round" stroke-linejoin="round"/>
<path d="M111.415 69.4006C103.037 83.0659 101.863 91.9964 100.734 96.0119C105.753 87.3005 106.795 84.9576 112.852 76.0692C113.879 74.5622 115.326 72.9747 117.386 71.3325L111.415 69.4006Z" fill="black"/>
<path d="M136.494 95.228C129.96 101.983 123.701 111.697 121.206 119.172C124.718 115.431 130.698 108.951 135.925 103.161C137.343 101.59 138.993 100.535 141.96 100.018C139.811 98.8122 138.22 96.9479 136.494 95.2283L136.494 95.228Z" fill="black"/>
<path d="M62.9327 152.819C74.872 147.908 77.2449 145.429 82.6065 142.19" stroke="black" stroke-width="4.99999" stroke-linecap="round" stroke-linejoin="round"/>
<path d="M54.1562 145.261C65.6185 136.745 70.3271 131.57 77.4456 125.202" stroke="black" stroke-width="4.99999" stroke-linecap="round" stroke-linejoin="round"/>
<path d="M43.9546 135.93C50.9864 129.067 53.6654 125.176 57.6932 120.365" stroke="black" stroke-width="4.99999" stroke-linecap="round" stroke-linejoin="round"/>
</g>
<defs>
<clipPath id="clip0">
<rect width="200" height="200" fill="white"/>
</clipPath>
</defs>
</svg>
