<svg width="200" height="200" viewBox="0 0 200 200" fill="none" xmlns="http://www.w3.org/2000/svg">
<path d="M100 142.5C89.6613 142.5 81.25 150.911 81.25 161.25C81.25 171.589 89.6613 180 100 180C110.339 180 118.75 171.589 118.75 161.25C118.75 150.911 110.339 142.5 100 142.5ZM100 170.625C94.8306 170.625 90.625 166.419 90.625 161.25C90.625 156.081 94.8306 151.875 100 151.875C105.169 151.875 109.375 156.081 109.375 161.25C109.375 166.419 105.169 170.625 100 170.625Z" fill="black"/>
<path d="M100 20C73.1191 20 51.25 41.8691 51.25 68.75V73.4375H88.75V68.75C88.75 62.5466 93.7966 57.5 100 57.5C106.203 57.5 111.25 62.5466 111.25 68.75C111.25 72.0556 109.799 75.1844 107.269 77.3347L81.25 99.4556V133.125H118.75V116.794L131.555 105.908C142.483 96.6222 148.75 83.0791 148.75 68.75C148.75 41.8691 126.881 20 100 20V20ZM125.483 98.7647L109.375 112.46V123.75H90.625V103.79L113.34 84.4778C117.97 80.5437 120.625 74.8112 120.625 68.75C120.625 57.3772 111.373 48.125 100 48.125C90.2391 48.125 82.0403 54.9406 79.9122 64.0625H60.9022C63.2275 44.5528 79.8747 29.375 100 29.375C121.712 29.375 139.375 47.0384 139.375 68.75C139.375 80.3231 134.312 91.2625 125.483 98.7647Z" fill="black"/>
</svg>
