<svg width="200" height="200" viewBox="0 0 200 200" fill="none" xmlns="http://www.w3.org/2000/svg">
<path d="M122.836 151.589C126.231 159.708 133.159 158.322 140.147 154.753C150.031 149.701 162.371 128.441 163.189 118.698C163.903 109.729 160.416 102.998 153.384 102.427" fill="white"/>
<path d="M122.836 151.589C126.231 159.708 133.159 158.322 140.147 154.753C150.031 149.701 162.371 128.441 163.189 118.698C163.903 109.729 160.416 102.998 153.384 102.427" stroke="black" stroke-width="4.99983" stroke-linecap="round" stroke-linejoin="round"/>
<path d="M127.198 51.2493C143.476 61.7225 157.371 94.1844 150.551 115.796C146.934 126.887 133.181 147.789 122.723 151.114C104.887 156.867 88.7435 154.61 72.3527 147.023C66.5514 144.33 60.5858 140.395 56.0073 136.642C37.1813 121.468 27.0956 104.761 39.0264 93.0505C25.9434 77.3745 47.6919 55.3997 60.0285 64.1428C54.9609 41.2341 81.5049 32.4436 93.0135 52.2764C97.2425 51.0721 110.294 40.3812 127.198 51.2493Z" fill="white" stroke="black" stroke-width="4.99983" stroke-linecap="round" stroke-linejoin="round"/>
<path d="M59.1055 66.637C68.6508 79.5118 74.9384 81.6685 78.2628 84.2667C72.0419 76.3184 70.2543 74.4704 64.2746 65.5361C63.259 64.0151 62.3439 62.3201 61.8884 59.6813L56.5758 65.1332C56.2453 64.9583 58.2947 65.8335 59.1051 66.6366L59.1055 66.637Z" fill="black"/>
<path d="M36.3108 93.5491C42.6911 100.461 51.319 108.236 58.635 111.142C55.0707 107.393 46.4999 97.0881 41.02 91.5507C41.0313 91.5393 41.0226 91.5715 36.3104 93.5488L36.3108 93.5491Z" fill="black"/>
<path d="M122.347 136.302C109.759 133.329 107.01 131.249 101.243 128.929" stroke="black" stroke-width="4.99983" stroke-linecap="round" stroke-linejoin="round"/>
<path d="M129.814 127.449C117.122 120.84 111.63 116.46 103.639 111.334" stroke="black" stroke-width="4.99983" stroke-linecap="round" stroke-linejoin="round"/>
<path d="M138.408 116.619C130.357 110.945 127.069 107.509 122.407 103.452" stroke="black" stroke-width="4.99983" stroke-linecap="round" stroke-linejoin="round"/>
<path d="M93.6911 49.3023C107.62 65.2916 117.878 64.9737 128.799 67.7292C116.31 66.5117 108.27 71.3243 91.0905 53.8846L93.6911 49.3023Z" fill="black"/>
</svg>
