<svg width="200" height="200" viewBox="0 0 200 200" fill="none" xmlns="http://www.w3.org/2000/svg">
<g clip-path="url(#clip0)">
<path d="M68.5167 171.703C66.451 180.257 59.3903 179.987 51.9248 177.57C41.3655 174.149 25.8113 155.113 23.4592 145.622C21.3325 136.88 23.7091 129.681 30.5617 128.002" fill="white"/>
<path d="M68.5167 171.703C66.451 180.257 59.3903 179.987 51.9248 177.57C41.3655 174.149 25.8113 155.113 23.4592 145.622C21.3325 136.88 23.7091 129.681 30.5617 128.002" stroke="black" stroke-width="4.99993" stroke-linecap="round" stroke-linejoin="round"/>
<path d="M48.3062 73.3204C33.8932 86.2414 25.3187 120.496 35.4784 140.753C40.8076 151.132 57.699 169.59 68.5525 171.216C87.0752 174.07 102.657 169.282 117.639 159.193C122.94 155.615 128.207 150.783 132.133 146.353C146.3 129.941 143.5 109.17 141.99 100.62C151.799 90.4938 164.821 79.4897 177.712 69.8001C196.995 55.307 169.155 35.98 151.23 49.7418C142.839 56.1845 135.068 60.5831 116.672 75.4053C122.883 63.7187 131.13 46.2685 138.465 35.845C150.569 18.6481 120.779 6.42444 106.423 27.7597C96.6481 42.2894 91.4765 55.0153 82.2221 68.9165C77.8556 68.3977 63.2746 59.9102 48.3062 73.3204Z" fill="white" stroke="black" stroke-width="4.99993" stroke-linecap="round" stroke-linejoin="round"/>
<path d="M115.059 73.1132C106.682 86.7776 105.51 95.7038 104.342 99.7586C109.391 91.0187 110.437 88.6701 116.491 79.7857C117.522 78.2753 118.966 76.6901 121.029 75.0449L115.059 73.1132Z" fill="black"/>
<path d="M140.137 98.9404C133.596 105.701 127.341 115.411 124.852 122.88C131.786 115.413 137.254 109.51 143.694 102.243C143.675 102.225 141.856 100.666 140.133 98.9436L140.137 98.9404Z" fill="black"/>
<path d="M66.5763 156.531C78.5336 151.6 80.9188 149.11 86.2455 145.906" stroke="black" stroke-width="4.99993" stroke-linecap="round" stroke-linejoin="round"/>
<path d="M57.7999 148.973C69.2845 140.436 74.0131 135.241 81.0912 128.913" stroke="black" stroke-width="4.99993" stroke-linecap="round" stroke-linejoin="round"/>
<path d="M47.5984 139.642C54.6478 132.763 57.3499 128.849 61.3107 124.105" stroke="black" stroke-width="4.99993" stroke-linecap="round" stroke-linejoin="round"/>
<path d="M81.0816 66.0874C69.8625 84.0826 59.6837 85.3944 49.3368 89.8462C61.476 86.6645 70.1768 90.1422 84.3757 70.1997L81.0816 66.0874Z" fill="black"/>
</g>
<defs>
<clipPath id="clip0">
<rect width="200" height="200" fill="white"/>
</clipPath>
</defs>
</svg>
